<?xml version="1.0" ?><svg height="24" version="1.1" width="24" xmlns="http://www.w3.org/2000/svg" xmlns:cc="http://creativecommons.org/ns#" xmlns:dc="http://purl.org/dc/elements/1.1/" xmlns:rdf="http://www.w3.org/1999/02/22-rdf-syntax-ns#"><g transform="translate(0 -1028.4)"><g transform="translate(-72,66)"><path d="m76 965.36c-1.105 0-2 0.9-2 2v8 2 1 6c0 1.11 0.895 2 2 2h2 12 2c1.105 0 2-0.89 2-2v-6-1-2-4-4c0-1.1-0.895-2-2-2h-2-2-2-8-2z" fill="#e67e22"/><path d="m76-64c-1.105 0-2 0.895-2 2v8 2 1 6c0 1.105 0.895 2 2 2h2 12 2c1.105 0 2-0.895 2-2v-6-1-2-4-4c0-1.105-0.895-2-2-2h-2-2-2-8-2z" fill="#f39c12" transform="translate(0 1028.4)"/><path d="m76-65c-1.105 0-2 0.895-2 2v8 2 1 6c0 1.105 0.895 2 2 2h2 12 2c1.105 0 2-0.895 2-2v-6-1-2-4-4c0-1.105-0.895-2-2-2h-2-2-2-8-2z" fill="#e67e22" transform="translate(0 1028.4)"/><path d="m76-66c-1.105 0-2 0.895-2 2v8 2 1 6c0 1.105 0.895 2 2 2h2 12 2c1.105 0 2-0.895 2-2v-6-1-2-4-4c0-1.105-0.895-2-2-2h-2-2-2-8-2z" fill="#f1c40f" transform="translate(0 1028.4)"/></g><path d="m17 1040.4c-1.105 0-2 0.9-2 2v4c0 1.1 0.895 2 2 2s2-0.9 2-2v-4c0-1.1-0.895-2-2-2zm0 1c0.552 0 1 0.4 1 1 0 0.5-0.448 1-1 1s-1-0.5-1-1c0-0.6 0.448-1 1-1zm0 3c0.552 0 1 0.4 1 1v1c0 0.5-0.448 1-1 1s-1-0.5-1-1v-1c0-0.6 0.448-1 1-1z" fill="#f39c12"/><g transform="translate(5)"><path d="m10 1028.4v10c0 1.1 0.895 2 2 2s2-0.9 2-2v-10h-4z" fill="#34495e"/><path d="m12 1028.4v1h1v-1h-1zm0 1h-1v1h1v-1zm0 1v1h1v-1h-1zm0 1h-1v1h1v-1zm0 1v1h1v-1h-1zm0 1h-1v1h1v-1zm0 1v1h1v-1h-1zm0 1h-1v1h1v-1zm0 1v1h1v-1h-1zm0 1h-1v1h1v-1zm0 1v1c0.552 0 1-0.5 1-1h-1z" fill="#95a5a6"/><path d="m11 1028.4v1h1v-1h-1zm0 2v1h1v-1h-1zm0 2v1h1v-1h-1zm0 2v1h1v-1h-1zm0 2v1h1v-1h-1zm0 2c0 0.5 0.448 1 1 1v-1h-1z" fill="#ecf0f1"/></g><path d="m17 1039.4c-1.105 0-2 0.9-2 2v4c0 1.1 0.895 2 2 2s2-0.9 2-2v-4c0-1.1-0.895-2-2-2zm0 1c0.552 0 1 0.4 1 1 0 0.5-0.448 1-1 1s-1-0.5-1-1c0-0.6 0.448-1 1-1zm0 3c0.552 0 1 0.4 1 1v1c0 0.5-0.448 1-1 1s-1-0.5-1-1v-1c0-0.6 0.448-1 1-1z" fill="#ecf0f1"/></g></svg>