<?xml version="1.0" encoding="utf-8"?>
<!-- Generator: Adobe Illustrator 21.1.0, SVG Export Plug-In . SVG Version: 6.00 Build 0)  -->
<svg version="1.1" id="Layer_1" xmlns="http://www.w3.org/2000/svg" xmlns:xlink="http://www.w3.org/1999/xlink" x="0px" y="0px"
	 viewBox="0 0 108 108" style="enable-background:new 0 0 108 108;" xml:space="preserve">
<style type="text/css">
	.st0{fill:#CE2828;}
	.st1{fill:#F7D009;}
	.st2{fill:#E40F85;}
</style>
<path class="st0" d="M28.5,54.5c0-6.8,2.7-13.3,7.5-18c4.8-4.8,11.3-7.5,18-7.5s13.3,2.7,18,7.5c4.8,4.8,7.5,11.3,7.5,18
	s-2.7,13.3-7.5,18C67.3,77.3,60.8,80,54,80s-13.3-2.7-18-7.5C31.2,67.8,28.5,61.3,28.5,54.5"/>
<path d="M34.1,54.5c-0.1-4.3,1.2-8.5,3.6-11.9c2.5-3.5,6-6.1,10-7.4c4.1-1.3,8.4-1.3,12.5,0c4.1,1.3,7.6,3.9,10,7.4
	c2.5,3.5,3.7,7.7,3.6,11.9c0.1,4.3-1.2,8.5-3.6,11.9c-2.5,3.5-6,6.1-10,7.4c-4.1,1.3-8.4,1.3-12.5,0c-4.1-1.3-7.6-3.9-10-7.4
	C35.2,63,34,58.8,34.1,54.5"/>
<path class="st1" d="M51,47.5c0.9,0,2.5-2.8,2.5-3.7c0-0.9-3.2-3.3-7.8-3.3c-6.4,0-8.1,4.5-8.1,7.1c0,2.7,0.8,5.8,7.6,7.9
	c1.8,0.6,4.6,1.5,4.6,3.8c0,1.9-2.1,2.9-4.4,2.9c-6.7,0-6.2-6.3-6.7-6.3c-0.3,0-1.9,1.5-1.9,4.2c0,5,4.5,7.3,9,7.3
	c6.6,0,9.2-4.5,9.2-8.1c0-2.9-1.3-6.2-7.9-8.3c-1.7-0.6-4.8-1.4-4.8-3.7c0-1.9,2-2.6,3.6-2.6C48.9,44.7,50.2,47.5,51,47.5z"/>
<path class="st2" d="M56.7,66.3c0,0.8,0,1.2,0.8,1.2c6.9,0,14-8.9,13.7-18c0-1.3,0.1-2.4-0.5-2.4h-2.8c-0.3,0-1.1-0.1-1.1,0.4
	c0,0.5,0.3,1.9,0.3,3.4c0,2.4-0.8,6.2-2.1,6.2c-0.6,0-3.7-3.5-3.7-7.2c0-0.9,0.3-1.9,0.3-2.4c0-0.6-0.7-0.5-1.1-0.5h-2.6
	c-1.2,0-1.2,0-1.2,1.4c0,8.8,5.5,11,5.5,12.3c0,0.3-0.9,1.5-4.5,1.5c-0.8,0-0.9,0.9-0.9,1.3V66.3z"/>
</svg>
