<?xml version="1.0" standalone="no"?>
<!DOCTYPE svg PUBLIC "-//W3C//DTD SVG 20010904//EN"
 "http://www.w3.org/TR/2001/REC-SVG-20010904/DTD/svg10.dtd">
<svg version="1.0" xmlns="http://www.w3.org/2000/svg"
 width="700.000000pt" height="700.000000pt" viewBox="0 0 700.000000 700.000000"
 preserveAspectRatio="xMidYMid meet">
<metadata>
Created by potrace 1.11, written by Peter Selinger 2001-2013
</metadata>
<g transform="translate(0.000000,700.000000) scale(0.100000,-0.100000)"
fill="#000000" stroke="none">
<path d="M3717 6113 c-1 -1 -150 -4 -332 -6 -181 -3 -345 -6 -364 -6 l-33 -1
7 -92 c11 -138 12 -152 21 -288 4 -69 8 -172 8 -230 l1 -105 -990 -1 c-545 -1
-993 -2 -996 -3 -3 -1 -4 -92 -3 -203 3 -187 12 -611 13 -650 1 -12 8 -16 24
-13 178 31 835 46 2037 47 626 0 1463 -8 1745 -17 66 -2 219 -7 340 -10 247
-7 392 -12 606 -20 l147 -6 7 28 c14 49 15 843 2 844 -7 1 -41 1 -77 0 -36 0
-450 -2 -920 -4 -814 -4 -989 0 -1015 24 -5 6 -8 79 -6 182 6 288 5 481 -2
510 l-7 27 -106 -2 c-58 -2 -106 -4 -107 -5z"/>
<path d="M2385 4367 c-202 -74 -586 -230 -639 -260 -33 -17 -64 -39 -69 -48
-11 -17 9 -86 88 -304 176 -487 291 -881 415 -1425 12 -52 24 -105 26 -117 2
-12 16 -71 29 -130 14 -60 27 -118 30 -130 3 -13 11 -23 19 -23 12 0 151 42
186 57 8 3 20 7 25 8 6 2 102 35 215 75 113 40 257 90 320 112 63 22 116 41
117 42 1 1 -8 54 -21 117 -43 207 -106 427 -301 1059 -37 120 -140 433 -190
580 -26 74 -50 146 -55 160 -21 68 -92 239 -103 247 -8 6 -40 -1 -92 -20z"/>
<path d="M4436 4368 c-17 -26 -48 -137 -131 -468 -53 -211 -176 -669 -245
-915 -17 -60 -33 -117 -35 -125 -24 -96 -206 -676 -259 -825 -44 -126 -98
-244 -132 -290 -15 -20 -26 -20 -742 -20 -656 1 -1234 8 -1662 21 -257 8 -317
11 -329 18 -29 18 -34 -51 -37 -472 l-2 -423 31 5 c121 19 665 27 2862 41
1902 13 2400 17 2403 20 3 3 5 687 3 822 -1 28 -3 31 -28 27 -113 -17 -487
-28 -993 -28 -432 -1 -542 3 -557 17 -3 4 28 87 69 184 108 256 234 615 441
1253 210 646 288 914 271 930 -8 7 -129 46 -219 70 -16 4 -119 33 -228 64
-108 31 -216 61 -240 66 -23 6 -73 19 -112 30 -91 25 -111 25 -129 -2z"/>
</g>
</svg>
