<?xml version="1.0" standalone="no"?>
<!DOCTYPE svg PUBLIC "-//W3C//DTD SVG 20010904//EN"
 "http://www.w3.org/TR/2001/REC-SVG-20010904/DTD/svg10.dtd">
<svg version="1.0" xmlns="http://www.w3.org/2000/svg"
 width="616.000000pt" height="616.000000pt" viewBox="0 0 616.000000 616.000000"
 preserveAspectRatio="xMidYMid meet">
<metadata>
Created by potrace 1.14, written by Peter Selinger 2001-2017
</metadata>
<g transform="translate(0.000000,616.000000) scale(0.100000,-0.100000)"
fill="#000000" stroke="none">
<path d="M3356 6153 c-2 -2 -841 -16 -872 -15 -19 1 -21 -3 -19 -41 5 -71 16
-210 20 -257 9 -101 17 -263 20 -392 l3 -136 -27 -4 c-14 -1 -533 -3 -1153 -2
l-1128 0 -1 -25 c-1 -14 -1 -28 -1 -31 0 -3 3 -190 7 -415 4 -226 8 -437 8
-470 l2 -60 35 1 c19 0 64 3 100 7 180 17 350 23 985 33 859 13 2794 7 3295
-11 83 -3 236 -7 670 -20 261 -8 489 -16 537 -21 52 -5 52 -5 61 28 5 18 10
85 12 148 4 186 5 772 2 806 l-4 31 -411 -5 c-877 -11 -1788 -7 -1864 7 l-72
14 5 386 c3 212 1 400 -4 416 l-9 30 -97 0 c-54 0 -98 -1 -100 -2z"/>
<path d="M1770 4131 c-129 -48 -574 -223 -645 -254 -100 -44 -170 -85 -181
-107 -12 -23 20 -130 121 -405 68 -186 238 -708 255 -785 4 -19 22 -84 39
-144 38 -129 121 -462 156 -621 45 -207 116 -509 120 -513 9 -9 988 327 1007
346 7 7 -35 218 -72 357 -30 114 -136 486 -166 580 -13 44 -29 94 -33 110 -45
150 -123 394 -236 735 -74 223 -137 412 -139 421 -8 30 -95 247 -111 278 -8
17 -21 31 -28 30 -6 0 -46 -13 -87 -28z"/>
<path d="M4146 4138 c-22 -33 -41 -91 -76 -231 -17 -67 -40 -155 -51 -195 -10
-40 -21 -80 -22 -90 -2 -9 -9 -35 -14 -57 -6 -22 -37 -139 -68 -260 -58 -222
-236 -876 -260 -950 -7 -22 -19 -65 -28 -95 -38 -135 -164 -540 -214 -690 -75
-224 -126 -352 -174 -432 l-39 -67 -123 -3 c-163 -4 -1647 1 -1907 6 -113 3
-317 7 -455 10 -271 6 -536 15 -627 21 -43 3 -59 0 -70 -12 -10 -13 -14 -117
-16 -516 l-4 -500 69 8 c37 4 93 9 123 11 132 7 1475 22 2570 29 1618 10 3180
21 3328 24 l52 1 0 495 0 494 -62 -5 c-35 -3 -81 -7 -103 -9 -227 -23 -1614
-29 -1652 -8 -23 13 -20 21 107 311 21 47 30 70 66 167 236 643 692 2059 720
2236 l6 37 -98 30 c-233 71 -878 249 -936 259 -20 3 -31 -2 -42 -19z"/>
</g>
</svg>
